<?xml version="1.0" standalone="no"?><!DOCTYPE svg PUBLIC "-//W3C//DTD SVG 1.1//EN" "http://www.w3.org/Graphics/SVG/1.1/DTD/svg11.dtd"><svg class="icon" width="32px" height="32.00px" viewBox="0 0 1024 1024" version="1.1" xmlns="http://www.w3.org/2000/svg"><path d="M162.234909 639.764822a289.28 235.52 60.192 1 0 408.719549-234.151685 289.28 235.52 60.192 1 0-408.719549 234.151685Z" fill="#F4C43A" /><path d="M517.12 120.32c-25.6-12.8-133.12 71.68-209.92 125.44 66.56 33.28 135.68 66.56 202.24 99.84 23.04-84.48 61.44-197.12 7.68-225.28zM601.6 491.52c94.72 43.52 171.52 104.96 181.76 156.16-12.8 46.08-110.08 71.68-235.52 84.48l53.76-240.64z" fill="#F4C43A" /><path d="M200.34743 469.218421a84.48 84.48 0 1 0 146.605925-83.989191 84.48 84.48 0 1 0-146.605925 83.989191Z" fill="#FFFFFF" /><path d="M248.679485 429.098502a10.24 23.04 79.42 1 0 45.296617-8.460667 10.24 23.04 79.42 1 0-45.296617 8.460667Z" fill="#030000" /><path d="M354.53416 707.864497a84.48 84.48 0 1 0 146.605926-83.989192 84.48 84.48 0 1 0-146.605926 83.989192Z" fill="#FFFFFF" /><path d="M411.396899 681.260801a10.24 23.04 38.748 1 0 28.841299-35.938083 10.24 23.04 38.748 1 0-28.841299 35.938083Z" fill="#030000" /><path d="M84.48 535.04c-43.52-5.12-92.16 2.56-81.92 46.08 23.04 48.64 71.68 53.76 130.56 53.76-25.6-25.6-48.64-53.76-48.64-99.84zM171.52 724.48C76.8 691.2 38.4 783.36 104.96 816.64c76.8 30.72 87.04 104.96 744.96 89.6 40.96-28.16 17.92-64-7.68-69.12-33.28-7.68-69.12-28.16-61.44-40.96-5.12-17.92 135.68 30.72 215.04 33.28 28.16 5.12 40.96-43.52 0-51.2-61.44-12.8-125.44-23.04-186.88-35.84 7.68-7.68 15.36-12.8 23.04-20.48 2.56-25.6 0-48.64-28.16-48.64-79.36 35.84-130.56 56.32-209.92 69.12-115.2 151.04-291.84 102.4-422.4-17.92z" fill="#F4C43A" /></svg>