<?xml version="1.0" standalone="no"?><!DOCTYPE svg PUBLIC "-//W3C//DTD SVG 1.1//EN" "http://www.w3.org/Graphics/SVG/1.1/DTD/svg11.dtd"><svg class="icon" width="32px" height="32.00px" viewBox="0 0 1024 1024" version="1.1" xmlns="http://www.w3.org/2000/svg"><path fill="#1afa29" d="M521.331 572.115a26.813 26.813 0 0 1-35.93-1.501L125.085 216.357a26.599 26.599 0 0 1-0.161-37.753l0.16-0.161a26.813 26.813 0 0 1 37.807-0.161l341.226 335.541 337.472-335.38a26.813 26.813 0 0 1 37.86 0.054l0.107 0.053a26.706 26.706 0 0 1-0.107 37.86L523.208 570.4a27.135 27.135 0 0 1-1.877 1.715zM479.556 888.673L125.085 538.17a26.706 26.706 0 0 1-0.161-37.86l0.107-0.054a26.813 26.813 0 0 1 37.86-0.107l339.188 335.38 339.51-335.434a26.813 26.813 0 0 1 37.806 0.107l0.161 0.107a26.652 26.652 0 0 1-0.16 37.807L520.58 892.588a26.813 26.813 0 0 1-37.806-0.108l-0.108-0.107a26.813 26.813 0 0 1-3.11-3.754z" /></svg>